<svg xmlns="http://www.w3.org/2000/svg" viewBox="0 0 128 128" role="img" aria-label="Papryczka w Bogu — znak papryczki"><rect width="128" height="128" rx="0" fill="#f6f0e5"/><path fill="#b84232" d="M77 25c13-1 25 8 27 21 4 26-18 55-44 62-18 5-35-4-35-21 0-11 9-21 14-31 7-16 20-29 38-31Z"/><path fill="#617b4a" d="M70 30c1-10 6-19 17-22 5-2 11-1 15 2-5 2-9 5-12 10 7-3 13-2 18 1-7 1-13 5-16 10-5-3-12-4-22-1Z"/><path fill="#932f25" d="M43 60c-4 9-9 17-9 25 0 9 7 15 18 15-14-8-8-25-9-40Z" opacity=".72"/></svg>
